<?xml version="1.0" encoding="UTF-8"?>
<svg xmlns="http://www.w3.org/2000/svg" viewBox="0 0 1400 1000">
    
        <!-- Logo YM -->
        <g>
            <!-- Y da Controller Four -->
            <g transform="translate(100,220) scale(0.55,0.71)" fill="#1B365D">
                <path transform="scale(1,-1) translate(0,-770)"
                    d="M177 436c0 -65 35 -99 99 -99h423c64 0 99 34 99 99v231c0 22 11 33 33 33h79c22 0 33 -11 33 -33v-251c0 -131 -74 -207 -206 -207h-177v-176c0 -22 -11 -33 -33 -33h-79c-22 0 -33 11 -33 33v176h-177c-132 0 -205 76 -205 207v251c0 22 11 33 32 33h80c21 0 32 -11 32 -33v-231z"/>
            </g>

            <!-- M da Orbitron Bold -->
            <g transform="translate(700,220) scale(0.6,0.68)" fill="#9B2335">
                <path transform="scale(1,-1) translate(0,-800)"
                    d="M56 0v720h145l261 -311l260 311h146v-720h-133v528l-273 -325l-274 324v-527h-132z"/>
            </g>
        </g>

        <!-- MERCHANDISING -->
        <g transform="translate(320,850) scale(0.74,0.65)">
            <g transform="translate(0,150) scale(0.15,-0.15)" fill="#1B365D">
         <!-- M -->
            <path d="M707 0h-58v595l-243 -595h-22l-244 595v-595h-57v667h85l227 -555l226 555h86v-667z"/>
            
            <!-- E -->
            <path transform="translate(800,0)" 
                  d="M506 0h-423v667h423v-52h-366v-247h359v-52h-359v-264h366v-52z"/>
            
            <!-- R -->
            <path transform="translate(1400,0)"
                  d="M543 0h-69l-187 276h-147v-276h-57v667h249c115 0 203 -73 203 -195c0 -121 -85 -188 -185 -192zM327 328c89 0 148 60 148 144s-59 143 -148 143h-187v-287h187z"/>
            
            <!-- C -->
            <path transform="translate(2000,0)"
                  d="M396 -12c-189 0 -338 140 -338 345s149 345 338 345c106 0 187 -47 243 -118l-48 -31c-42 58 -115 97 -195 97c-156 0 -278 -119 -278 -293c0 -172 122 -293 278 -293c80 0 153 39 195 97l49 -30c-60 -73 -138 -119 -244 -119z"/>
            
            <!-- H -->
            <path transform="translate(2700,0)"
                  d="M620 0h-57v317h-423v-317h-57v667h57v-298h423v298h57v-667z"/>
            
            <!-- A -->
            <path transform="translate(3500,0)"
                  d="M632 0h-66l-66 164h-353l-66 -164h-66l273 667h71zM481 216l-157 390l-158 -390h315z"/>
            
            <!-- N -->
            <path transform="translate(4200,0)"
                  d="M616 0h-56l-420 573v-573h-57v667h58l418 -565v565h57v-667z"/>
            
            <!-- D -->
            <path transform="translate(4900,0)"
                  d="M296 0h-213v667h213c207 0 337 -151 337 -334c0 -185 -130 -333 -337 -333zM296 52c176 0 277 125 277 281s-100 282 -277 282h-156v-563h156z"/>
            
            <!-- I - spazio ridotto -->
            <path transform="translate(5600,0)"
                  d="M140 0h-57v667h57v-667z"/>
            
            <!-- S -->
            <path transform="translate(5850,0)"
                  d="M290 -12c-110 0 -193 45 -244 106l37 43c43 -49 113 -97 209 -97c136 0 175 76 175 133c0 196 -400 94 -400 327c0 109 98 178 219 178c99 0 175 -35 226 -94l-38 -42c-48 58 -116 84 -191 84c-89 0 -156 -51 -156 -123c0 -171 400 -77 400 -326c0 -86 -57 -189 -237 -189z"/>
            
            <!-- I - spazio ridotto -->
            <path transform="translate(6450,0)"
                  d="M140 0h-57v667h57v-667z"/>
            
            <!-- N -->
            <path transform="translate(6700,0)"
                  d="M616 0h-56l-420 573v-573h-57v667h58l418 -565v565h57v-667z"/>
            
            <!-- G corretto -->
            <path transform="translate(7400,0)"
                  d="M396 -13c-188 0 -338 140 -338 346s150 345 338 345c110 0 190 -44 251 -114l-43 -31c-47 56 -123 93 -208 93c-156 0 -278 -119 -278 -293c0 -172 122 -294 278 -294c89 0 160 44 196 81v160h-252v51h309v-233c-59 -66 -148 -111 -253 -111z"/>
        </g>
        </g>
    
</svg>